<svg width="1096" height="397" xmlns="http://www.w3.org/2000/svg" xmlns:xlink="http://www.w3.org/1999/xlink" overflow="hidden"><defs><clipPath id="clip0"><rect x="0" y="0" width="1096" height="397"/></clipPath></defs><g clip-path="url(#clip0)"><rect x="0" y="0" width="1096" height="397.167" fill="#FFFFFF"/><path d="M386.5 194.583C386.5 172.481 404.409 154.565 426.501 154.565L1044.5 154.565C1066.59 154.565 1084.5 172.481 1084.5 194.583L1084.5 354.648C1084.5 376.749 1066.59 394.666 1044.5 394.666L426.501 394.666C404.409 394.666 386.5 376.749 386.5 354.648Z" stroke="#000000" stroke-width="1.33333" stroke-miterlimit="8" fill="#F2F2F2" fill-rule="evenodd"/><text font-family="Calibri,Calibri_MSFontService,sans-serif" font-weight="400" font-size="24" transform="matrix(1 0 0 1.00042 407.802 371)">Quamoco<tspan font-size="24" x="100.3" y="0">Model</tspan></text><path d="M33.5001 119.05C33.5001 102.198 48.9462 88.5372 68 88.5372 87.0539 88.5372 102.5 102.198 102.5 119.05 102.5 135.902 87.0539 149.563 68 149.563 48.9462 149.563 33.5001 135.902 33.5001 119.05Z" stroke="#000000" stroke-width="1.33333" stroke-miterlimit="8" fill="#FFFFFF" fill-rule="evenodd"/><text font-family="Calibri,Calibri_MSFontService,sans-serif" font-weight="400" font-size="24" transform="matrix(1 0 0 1.00042 60.4965 126)">A</text><rect x="3.50005" y="3.50152" width="129" height="66.0277" stroke="#000000" stroke-width="1.33333" stroke-miterlimit="8" fill="#FFFFFF"/><text font-family="Calibri,Calibri_MSFontService,sans-serif" font-weight="400" font-size="19" transform="matrix(1 0 0 1.00042 26.164 42)">Definitions</text><path d="M0.666667-2.27941e-05 0.667069 11.7568-0.666265 11.7569-0.666667 2.27941e-05ZM4.00036 10.4234 0.000629921 18.4235-3.99964 10.4237Z" transform="matrix(-1 0 0 1.00042 67.5007 69.5292)"/><rect x="3.50005" y="169.571" width="129" height="67.0282" stroke="#000000" stroke-width="1.33333" stroke-miterlimit="8" fill="#FFFFFF"/><text font-family="Calibri,Calibri_MSFontService,sans-serif" font-weight="400" font-size="19" transform="matrix(1 0 0 1.00042 24.2173 209)">Statements</text><path d="M68.1667 149.563 68.1671 163.269 66.8338 163.269 66.8334 149.563ZM71.5004 161.935 67.5007 169.939 63.5004 161.936Z"/><path d="M152.5 203.085C152.5 186.234 167.722 172.572 186.5 172.572 205.278 172.572 220.5 186.234 220.5 203.085 220.5 219.937 205.278 233.598 186.5 233.598 167.722 233.598 152.5 219.937 152.5 203.085Z" stroke="#000000" stroke-width="1.33333" stroke-miterlimit="8" fill="#FFFFFF" fill-rule="evenodd"/><text font-family="Calibri,Calibri_MSFontService,sans-serif" font-weight="400" font-size="24" transform="matrix(1 0 0 1.00042 179.588 211)">B</text><rect x="244.5" y="170.572" width="129" height="66.0277" stroke="#000000" stroke-width="1.33333" stroke-miterlimit="8" fill="#FFFFFF"/><text font-family="Calibri,Calibri_MSFontService,sans-serif" font-weight="400" font-size="19" transform="matrix(1 0 0 1.00042 271.832 198)">ISO25010 <tspan font-size="19" x="-17.94" y="22.9903">characteristics</tspan></text><path d="M132.501 202.919 145.601 202.931 145.599 204.265 132.499 204.252ZM144.27 199.595 152.267 203.604 144.263 207.598Z"/><path d="M243.833 204.39 227.163 204.292 227.171 202.958 243.841 203.056ZM228.476 207.634 220.5 203.586 228.523 199.631Z"/><rect x="407.5" y="247.604" width="129" height="67.0281" stroke="#000000" stroke-width="1.33333" stroke-miterlimit="8" fill="#FFFFFF"/><text font-family="Calibri,Calibri_MSFontService,sans-serif" font-weight="400" font-size="19" transform="matrix(1 0 0 1.00042 444.105 275)">Quality <tspan font-size="19" x="-1.08667" y="22.9903">aspects</tspan></text><path d="M187.167 233.598 187.167 240.795 185.834 240.795 185.833 233.598ZM190.5 239.461 186.501 247.465 182.5 239.462Z"/><path d="M558.5 281.118C558.5 264.266 573.946 250.605 593 250.605 612.054 250.605 627.5 264.266 627.5 281.118 627.5 297.97 612.054 311.631 593 311.631 573.946 311.631 558.5 297.97 558.5 281.118Z" stroke="#000000" stroke-width="1.33333" stroke-miterlimit="8" fill="#FFFFFF" fill-rule="evenodd"/><text font-family="Calibri,Calibri_MSFontService,sans-serif" font-weight="400" font-size="24" transform="matrix(1 0 0 1.00042 584.942 288)">D</text><path d="M536.5 279.951 551.767 279.951 551.767 281.285 536.5 281.285ZM550.433 276.616 558.433 280.618 550.433 284.62Z"/><rect x="649.5" y="247.604" width="130" height="67.0281" stroke="#000000" stroke-width="1.33333" stroke-miterlimit="8" fill="#FFFFFF"/><text font-family="Calibri,Calibri_MSFontService,sans-serif" font-weight="400" font-size="19" transform="matrix(1 0 0 1.00042 684.038 275)">Product<tspan font-size="19" x="3.95331" y="22.9903">factors</tspan></text><rect x="407.5" y="172.572" width="129" height="67.0282" stroke="#000000" stroke-width="1.33333" stroke-miterlimit="8" fill="#FFFFFF"/><text font-family="Calibri,Calibri_MSFontService,sans-serif" font-weight="400" font-size="19" transform="matrix(1 0 0 1.00042 426.791 200)">Practitioner<tspan font-size="19" x="21.98" y="22.9903">Books</tspan></text><path d="M537.072 205.244 565.598 252.977 564.454 253.661 535.928 205.929ZM567.775 250.121 568.447 259.043 560.908 254.228Z"/><path d="M627.5 279.951 643.37 279.951 643.37 281.285 627.5 281.285ZM642.037 276.616 650.037 280.618 642.037 284.62Z"/><path d="M799.5 281.118C799.5 264.266 814.946 250.605 834 250.605 853.054 250.605 868.5 264.266 868.5 281.118 868.5 297.97 853.054 311.631 834 311.631 814.946 311.631 799.5 297.97 799.5 281.118Z" stroke="#000000" stroke-width="1.33333" stroke-miterlimit="8" fill="#FFFFFF" fill-rule="evenodd"/><text font-family="Calibri,Calibri_MSFontService,sans-serif" font-weight="400" font-size="24" transform="matrix(1 0 0 1.00042 827.604 288)">E</text><rect x="649.5" y="172.572" width="130" height="67.0282" stroke="#000000" stroke-width="1.33333" stroke-miterlimit="8" fill="#FFFFFF"/><text font-family="Calibri,Calibri_MSFontService,sans-serif" font-weight="400" font-size="19" transform="matrix(1 0 0 1.00042 679.72 200)">Scientific <tspan font-size="19" x="-1.33331" y="22.9903">literature</tspan></text><path d="M780.078 205.254 807.493 252.93 806.337 253.595 778.922 205.919ZM809.717 250.11 810.239 259.043 802.783 254.101Z"/><path d="M3.37703e-06-0.666667 14.059-0.666595 14.059 0.666738-3.37703e-06 0.666667ZM12.7257-3.99994 20.7257 0.000104987 12.7256 4.00006Z" transform="matrix(1 0 0 -1.00042 779.5 280.618)"/><rect x="891.5" y="221.593" width="181" height="119.05" stroke="#000000" stroke-width="1.33333" stroke-miterlimit="8" fill="#FFFFFF"/><text font-family="Calibri,Calibri_MSFontService,sans-serif" font-weight="400" font-size="19" transform="matrix(1 0 0 1.00042 900.797 253)">Quality model<tspan font-size="19" x="111.333" y="0">with</tspan><tspan font-size="19" x="145.167" y="0">:</tspan><tspan font-family="Arial,Arial_MSFontService,sans-serif" font-size="19" x="0" y="22.9903">•</tspan><tspan font-size="19" x="30" y="22.9903">Quality </tspan>aspects<tspan font-family="Arial,Arial_MSFontService,sans-serif" font-size="19" x="0" y="44.9811">•</tspan><tspan font-size="19" x="30" y="44.9811">Product</tspan><tspan font-size="19" x="93.7" y="44.9811">factors</tspan><tspan font-family="Arial,Arial_MSFontService,sans-serif" font-size="19" x="0" y="67.9715">•</tspan><tspan font-size="19" x="30" y="67.9715">Measures</tspan></text><path d="M2.07851e-05-0.666667 16.905-0.66614 16.905 0.667194-2.07851e-05 0.666667ZM15.5718-3.99951 23.5717 0.000734908 15.5715 4.00049Z" transform="matrix(1 0 0 -1.00042 868.5 280.619)"/><rect x="649.5" y="322.635" width="130" height="67.0281" stroke="#000000" stroke-width="1.33333" stroke-miterlimit="8" fill="#FFFFFF"/><text font-family="Calibri,Calibri_MSFontService,sans-serif" font-weight="400" font-size="19" transform="matrix(1 0 0 1.00042 677.871 350)">Proposed<tspan font-size="19" x="7.51996" y="22.9903">Entities</tspan></text><path d="M0.57787-0.332432 27.9926 47.3228 26.8368 47.9877-0.57787 0.332432ZM30.217 44.5049 30.739 53.4339 23.2826 48.4941Z" transform="matrix(1 0 0 -1.00042 779.5 356.083)"/><text font-family="Calibri,Calibri_MSFontService,sans-serif" font-weight="400" font-size="24" transform="matrix(1 0 0 1.00042 145.389 22)">A: Extract statements<tspan font-size="24" x="213.153" y="0">from</tspan><tspan font-size="24" x="265.767" y="0">definitions</tspan><tspan font-size="24" x="374.887" y="0">to</tspan><tspan font-size="24" x="400.82" y="0">characterize</tspan><tspan font-size="24" x="524.693" y="0">Cloud</tspan>-<tspan font-size="24" x="588.36" y="0">native </tspan><tspan font-size="24" x="653.907" y="0">Applications</tspan><tspan font-size="24" x="0" y="28.9878">B: </tspan>Map<tspan font-size="24" x="75.1667" y="28.9878">statements</tspan><tspan font-size="24" x="189.407" y="28.9878">to</tspan><tspan font-size="24" x="215.34" y="28.9878">ISO25010 </tspan><tspan font-size="24" x="314.507" y="28.9878">characteristics</tspan><tspan font-size="24" x="0" y="57.9757">C: </tspan><tspan font-size="24" x="24.8333" y="57.9757">Propose</tspan><tspan font-size="24" x="109.947" y="57.9757">quality</tspan><tspan font-size="24" x="182.113" y="57.9757">attributes</tspan><tspan font-size="24" x="282.793" y="57.9757">from</tspan><tspan font-size="24" x="335.407" y="57.9757">similar</tspan><tspan font-size="24" x="405.74" y="57.9757">statements</tspan><tspan font-size="24" x="0" y="86.9635">D: Scan </tspan><tspan font-size="24" x="77.4667" y="86.9635">practitioner</tspan><tspan font-size="24" x="197.807" y="86.9635">books</tspan><tspan font-size="24" x="261.253" y="86.9635">to</tspan><tspan font-size="24" x="287.187" y="86.9635">derive</tspan><tspan font-size="24" x="353.787" y="86.9635">more</tspan><tspan font-size="24" x="411.14" y="86.9635">concrete</tspan><tspan font-size="24" x="501.74" y="86.9635">product</tspan><tspan font-size="24" x="584.02" y="86.9635">factors</tspan><tspan font-size="24" x="0" y="115.951">E: </tspan><tspan font-size="24" x="23.6667" y="115.951">Propose</tspan><tspan font-size="24" x="108.78" y="115.951">an </tspan>entity<tspan font-size="24" x="200.727" y="115.951">hierarchy</tspan><tspan font-size="24" x="296.933" y="115.951">and review </tspan>literature<tspan font-size="24" x="506.093" y="115.951">to</tspan><tspan font-size="24" x="532.027" y="115.951">find </tspan>suitable<tspan font-size="24" x="658.067" y="115.951">measures</tspan><tspan font-size="24" x="757.587" y="115.951">for</tspan><tspan font-size="24" x="790.913" y="115.951">product</tspan><tspan font-size="24" x="873.193" y="115.951">factors</tspan></text><rect x="121.5" y="247.604" width="130" height="67.0281" stroke="#000000" stroke-width="1.33333" stroke-miterlimit="8" fill="#FFFFFF"/><text font-family="Calibri,Calibri_MSFontService,sans-serif" font-weight="400" font-size="19" transform="matrix(1 0 0 1.00042 146.559 275)">Statement <tspan font-size="19" x="6.28" y="22.9903">mapping</tspan></text><path d="M290.5 281.118C290.5 264.266 305.946 250.605 325 250.605 344.054 250.605 359.5 264.266 359.5 281.118 359.5 297.97 344.054 311.631 325 311.631 305.946 311.631 290.5 297.97 290.5 281.118Z" stroke="#000000" stroke-width="1.33333" stroke-miterlimit="8" fill="#FFFFFF" fill-rule="evenodd"/><text font-family="Calibri,Calibri_MSFontService,sans-serif" font-weight="400" font-size="24" transform="matrix(1 0 0 1.00042 318.039 288)">C</text><path d="M251.5 280.951 284.293 280.952 284.293 282.286 251.5 282.285ZM282.96 277.617 290.96 281.619 282.96 285.62Z"/><path d="M0.00339668-0.666658 41.4919-0.455271 41.4851 0.878045-0.00339668 0.666658ZM40.1755-3.79535 48.1551 0.245354 40.1348 4.20454Z" transform="matrix(1 0 0 -1.00042 359.5 280.863)"/><path d="M618.511 301.705 617.941 306.519 616.402 311.333 613.906 315.75 610.776 319.712 607.005 323.037 602.84 325.665 598.33 327.341 593.672 327.924 589.023 327.342 584.52 325.798 580.29 323.297 576.581 320.163 573.383 316.387 570.936 312.135 570.268 309.695 571.554 309.343 572.199 311.701 572.134 311.544 574.508 315.669 574.439 315.57 577.562 319.258 577.484 319.18 581.108 322.242 581.016 322.177 585.14 324.615 585.017 324.558 589.39 326.058 589.256 326.027 593.755 326.59 593.589 326.59 598.087 326.027 597.938 326.064 602.311 324.439 602.188 324.5 606.248 321.938 606.163 322.001 609.849 318.751 609.767 318.838 612.828 314.963 612.771 315.048 615.207 310.736 615.153 310.861 616.652 306.173 616.625 306.298 617.187 301.548ZM567.286 311.673 569.495 303.002 575.103 309.972Z"/><text font-family="Calibri,Calibri_MSFontService,sans-serif" font-weight="400" font-size="19" transform="matrix(1 0 0 1.00042 567.771 340)">Iterate</text><path d="M858.341 302.654 858.09 308.873 857.27 314.866 856.071 320.546 854.49 325.61 852.644 329.875 850.511 333.303 848.19 335.492 846.888 336.143 845.528 336.37 843.028 335.745 840.672 334.129 838.514 331.644 836.65 328.493 835.054 324.787 833.905 320.639 833.58 318.349 834.9 318.161 835.219 320.408 835.202 320.324 836.326 324.387 836.296 324.301 837.858 327.926 837.819 327.85 839.631 330.912 839.561 330.815 841.622 333.19 841.496 333.077 843.683 334.577 843.467 334.48 845.716 335.043 845.445 335.032 846.57 334.844 846.381 334.906 847.506 334.343 847.346 334.454 849.533 332.392 849.424 332.525 851.486 329.212 851.44 329.3 853.252 325.112 853.227 325.178 854.789 320.178 854.773 320.239 855.96 314.614 855.952 314.662 856.764 308.724 856.759 308.788 857.008 302.6ZM830.413 320.026 833.497 311.627 838.363 319.135Z"/><text font-family="Calibri,Calibri_MSFontService,sans-serif" font-weight="400" font-size="19" transform="matrix(1 0 0 1.00042 828.609 348)">Iterate</text></g></svg>