<svg width="529" height="212" xmlns="http://www.w3.org/2000/svg" xmlns:xlink="http://www.w3.org/1999/xlink" overflow="hidden"><defs><clipPath id="clip0"><rect x="0" y="0" width="529" height="212"/></clipPath></defs><g clip-path="url(#clip0)"><rect x="0" y="0" width="529" height="212.401" fill="#FFFFFF"/><rect x="123.5" y="13.5255" width="108" height="46.087" stroke="#000000" stroke-width="1.33291" stroke-miterlimit="8" fill="#FFFFFF"/><text font-family="Calibri,Calibri_MSFontService,sans-serif" font-weight="400" font-size="19" transform="matrix(1 0 0 1.00189 153.338 42)">Factor</text><rect x="3.5" y="100.69" width="108" height="46.0869" stroke="#000000" stroke-width="1.33291" stroke-miterlimit="8" fill="#FFFFFF"/><text font-family="Calibri,Calibri_MSFontService,sans-serif" font-weight="400" font-size="19" transform="matrix(1 0 0 1.00189 29.8857 118)">Quality <tspan font-size="19" x="1.66614" y="22.9566">Aspect</tspan></text><path d="M143.5 89.6692 177.5 68.6295 211.5 89.6692Z" stroke="#000000" stroke-width="1.33291" stroke-miterlimit="8" fill="#FFFFFF" fill-rule="evenodd"/><path d="M177.5 69.2015 177.5 59.6125" stroke="#000000" stroke-width="1.33291" stroke-miterlimit="8" fill="none" fill-rule="evenodd"/><path d="M57.5 100.819 57.5 89.6354 143.065 89.6354 143.065 89.6692" stroke="#000000" stroke-width="1.33543" stroke-miterlimit="8" fill="none" fill-rule="evenodd"/><rect x="227.5" y="101.692" width="108" height="46.0869" stroke="#000000" stroke-width="1.33291" stroke-miterlimit="8" fill="#FFFFFF"/><text font-family="Calibri,Calibri_MSFontService,sans-serif" font-weight="400" font-size="19" transform="matrix(1 0 0 1.00189 251.189 119)">Product<tspan font-size="19" x="6.10475" y="22.9566">Factor</tspan></text><path d="M0 0-0.0458162 0-0.0458162 69.8235 11.9048 69.8235" stroke="#000000" stroke-width="1.33291" stroke-miterlimit="8" fill="none" fill-rule="evenodd" transform="matrix(1.83697e-16 1.00189 1 -1.84044e-16 211.5 89.6692)"/><rect x="341.5" y="12.5236" width="107" height="46.087" stroke="#000000" stroke-width="1.33291" stroke-miterlimit="8" fill="#FFFFFF"/><text font-family="Calibri,Calibri_MSFontService,sans-serif" font-weight="400" font-size="19" transform="matrix(1 0 0 1.00189 372.431 41)">Entity</text><path d="M231.5 35.9013 334.773 35.9014 334.773 37.2368 231.5 37.2367ZM333.441 32.5628 341.438 36.5691 333.441 40.5754Z"/><text font-family="Calibri,Calibri_MSFontService,sans-serif" font-weight="400" font-size="19" transform="matrix(1 0 0 1.00189 234.337 30)">characterizes<tspan font-size="19" x="-67.446" y="56.8924">is</tspan>-<tspan font-size="19" x="-50.1182" y="56.8924">a</tspan></text><path d="M0 0.666457-10.1967 0.666457-9.53029 0-9.53029 72.9315-10.1967 72.265 10.0405 72.265 9.37405 72.9315 9.37405 60.4937 10.707 60.4937 10.707 73.5979-10.8632 73.5979-10.8632-0.666457 0-0.666457ZM6.04177 61.8266 10.0405 53.8291 14.0393 61.8266Z" transform="matrix(1.83697e-16 1.00189 1 -1.84044e-16 395.5 12.5236)"/><path d="M396.166 59.2143 396.166 67.5889 395.5 66.9212 468.787 66.9212 468.12 67.5889 468.12 49.5936 468.787 50.2613 455.994 50.2613 455.994 48.9259 469.453 48.9259 469.453 68.2567 394.833 68.2567 394.833 59.2143ZM457.327 53.5999 449.329 49.5936 457.327 45.5873Z"/><text font-family="Calibri,Calibri_MSFontService,sans-serif" font-weight="400" font-size="19" transform="matrix(1 0 0 1.00189 471.683 62)">is<tspan font-size="19" x="11.663" y="0">-</tspan><tspan font-size="19" x="17.3279" y="0">a</tspan><tspan font-size="19" x="0" y="-46.9113">part</tspan><tspan font-size="19" x="31.6567" y="-46.9113">-</tspan><tspan font-size="19" x="37.3216" y="-46.9113">of</tspan></text><path d="M176.663 13.5255 176.663 5.01524 177.329 5.68296 111.429 5.68296 112.096 5.01524 112.096 36.6237 111.429 35.956 116.835 35.956 116.835 37.2914 110.763 37.2914 110.763 4.34753 177.996 4.34753 177.996 13.5255ZM115.503 32.6174 123.5 36.6237 115.503 40.63Z"/><text font-family="Calibri,Calibri_MSFontService,sans-serif" font-weight="400" font-size="19" transform="matrix(1 0 0 1.00189 46.4803 23)">impacts</text><rect x="389.5" y="100.69" width="107" height="46.0869" stroke="#000000" stroke-width="1.33291" stroke-miterlimit="8" fill="#FFFFFF"/><text font-family="Calibri,Calibri_MSFontService,sans-serif" font-weight="400" font-size="19" transform="matrix(1 0 0 1.00189 408.901 130)">Measure</text><path d="M417.915 101.692 417.915 77.6541 418.582 78.3218 301.5 78.3218 302.166 77.6541 302.166 95.0148 300.834 95.0148 300.834 76.9864 419.248 76.9864 419.248 101.692ZM305.499 93.6794 301.5 101.692 297.501 93.6794Z"/><text font-family="Calibri,Calibri_MSFontService,sans-serif" font-weight="400" font-size="19" transform="matrix(1 0 0 1.00189 324.624 93)">measures</text><rect x="141.5" y="155.794" width="108" height="46.087" stroke="#000000" stroke-width="1.33291" stroke-miterlimit="8" fill="#FFFFFF"/><text font-family="Calibri,Calibri_MSFontService,sans-serif" font-weight="400" font-size="19" transform="matrix(1 0 0 1.00189 155.179 184)">Evaluation</text><path d="M0-0.666457 193.901-0.666457 193.901 36.5225 192.568 36.5225 192.568 0 193.234 0.666457 0 0.666457ZM197.233 35.1895 193.234 43.187 189.236 35.1895Z" transform="matrix(1 0 0 -1.00189 249.5 190.046)"/><text font-family="Calibri,Calibri_MSFontService,sans-serif" font-weight="400" font-size="19" transform="matrix(1 0 0 1.00189 404.479 183)">uses<tspan font-size="19" x="-344.346" y="-11.9774">evaluates</tspan></text><path d="M0-0.666457 32.978-0.666457 32.978 24.2568 31.645 24.2568 31.645 0 32.3115 0.666457 0 0.666457ZM36.3102 22.9239 32.3115 30.9214 28.3128 22.9239Z" transform="matrix(1 0 0 -1.00189 249.5 178.759)"/><path d="M141.183 179.202 56.8335 179.202 56.8335 153.454 58.1665 153.454 58.1665 178.534 57.5 177.866 141.183 177.866ZM53.5013 154.79 57.5 146.777 61.4987 154.79Z"/><text font-family="Calibri,Calibri_MSFontService,sans-serif" font-weight="400" font-size="19" transform="matrix(1 0 0 1.00189 285.193 170)">evaluates</text><path d="M0 0.666457-5.63188 0.666457-4.96542 0-4.96542 69.2294-5.63188 68.563 11.3144 68.563 10.648 69.2294 10.648 61.0581 11.9809 61.0581 11.9809 69.8959-6.29834 69.8959-6.29834-0.666457 0-0.666457ZM7.3157 62.3911 11.3144 54.3936 15.3132 62.3911Z" transform="matrix(-6.12323e-17 -1.00189 -1 6.13481e-17 194.894 201.194)"/><text font-family="Calibri,Calibri_MSFontService,sans-serif" font-weight="400" font-size="19" transform="matrix(1 0 0 1.00189 88.0715 203)">uses</text></g></svg>